<?xml version="1.0" encoding="UTF-8"?>
<svg id="Layer_1" data-name="Layer 1" xmlns="http://www.w3.org/2000/svg" viewBox="0 0 240 100">
  <defs>
    <style>
      .cls-1 {
        fill: #fff;
        stroke-width: 0px;
      }
    </style>
  </defs>
  <path class="cls-1" d="m45.23,21.13l-28.87,28.87,28.87,28.87,28.87-28.87-28.87-28.87Zm-4.14,41.87l-13.01-13.01,5.64-5.65,7.36,7.36v11.29Zm-1.51-24.52l5.65-5.64,5.65,5.64-5.65,5.65-5.65-5.65Zm9.79,13.22l7.36-7.36,5.64,5.65-13.01,13.01v-11.29Z"/>
  <g>
    <path class="cls-1" d="m92.77,63.96c-.22-.21-.32-.47-.32-.76v-7.93l-9.05-17.9c-.05-.11-.08-.23-.08-.36,0-.24.09-.45.26-.62.17-.17.38-.26.62-.26h7.56c.46,0,.82.11,1.11.34.28.23.48.45.58.66l4.02,8.09,4.02-8.09c.11-.21.3-.44.58-.66.28-.23.65-.34,1.11-.34h7.56c.24,0,.45.09.62.26.17.18.26.38.26.62,0,.14-.03.25-.08.36l-9.05,17.9v7.93c0,.3-.11.55-.32.76-.22.22-.47.32-.76.32h-7.88c-.3,0-.55-.11-.76-.32Z"/>
    <path class="cls-1" d="m108.48,64.02c-.17-.17-.26-.38-.26-.62,0-.11.01-.2.04-.28l8.97-25.67c.11-.35.31-.66.6-.92.29-.27.7-.4,1.21-.4h8.73c.51,0,.91.13,1.21.4.29.27.5.58.6.92l8.97,25.67c.03.08.04.17.04.28,0,.24-.09.45-.26.62-.17.17-.38.26-.62.26h-7.44c-.8,0-1.33-.33-1.57-1.01l-.97-2.66h-8.65l-.97,2.66c-.24.67-.76,1.01-1.57,1.01h-7.44c-.24,0-.45-.09-.62-.26Zm12.65-11.24h4.55l-2.29-7.48-2.25,7.48Z"/>
    <path class="cls-1" d="m144.89,63.52c-1.97-.78-3.45-1.82-4.45-3.12-.99-1.3-1.52-2.73-1.57-4.29,0-.24.09-.45.26-.62.17-.17.38-.26.62-.26h7.64c.38,0,.68.05.9.14s.5.27.82.54c.78.62,1.77.92,2.98.92.91,0,1.64-.1,2.19-.3.55-.2.82-.48.82-.82,0-.48-.36-.85-1.09-1.11-.72-.25-2.09-.52-4.1-.78-6.92-.91-10.38-3.86-10.38-8.85,0-1.8.52-3.4,1.55-4.81,1.03-1.41,2.47-2.5,4.32-3.28,1.85-.78,3.98-1.17,6.4-1.17s4.73.43,6.64,1.29c1.9.86,3.36,1.94,4.38,3.24,1.02,1.3,1.56,2.57,1.61,3.8,0,.24-.09.45-.26.62-.17.18-.37.26-.58.26h-8.05c-.38,0-.67-.05-.88-.14-.22-.09-.46-.26-.72-.5-.56-.48-1.27-.72-2.13-.72-1.29,0-1.93.38-1.93,1.13,0,.4.31.74.95,1.01.63.27,1.8.51,3.52.72,2.68.35,4.83.87,6.46,1.57,1.62.7,2.8,1.63,3.54,2.8.74,1.17,1.11,2.63,1.11,4.4,0,1.9-.58,3.57-1.73,5.01-1.15,1.43-2.74,2.54-4.77,3.32-2.03.78-4.31,1.17-6.86,1.17-2.84,0-5.25-.39-7.22-1.17Z"/>
    <path class="cls-1" d="m165.97,64.02c-.17-.17-.26-.38-.26-.62,0-.11.01-.2.04-.28l8.97-25.67c.11-.35.31-.66.6-.92.29-.27.7-.4,1.21-.4h8.73c.51,0,.91.13,1.21.4.29.27.5.58.6.92l8.97,25.67c.03.08.04.17.04.28,0,.24-.09.45-.26.62-.17.17-.38.26-.62.26h-7.44c-.8,0-1.33-.33-1.57-1.01l-.97-2.66h-8.65l-.97,2.66c-.24.67-.76,1.01-1.57,1.01h-7.44c-.24,0-.45-.09-.62-.26Zm12.65-11.24h4.55l-2.29-7.48-2.25,7.48Z"/>
    <path class="cls-1" d="m198.61,63.96c-.22-.21-.32-.47-.32-.76v-25.99c0-.29.11-.55.32-.76.21-.21.47-.32.76-.32h6.36c.75,0,1.3.31,1.65.92l6.8,11.14v-10.98c0-.29.11-.55.32-.76.21-.21.47-.32.76-.32h7.28c.29,0,.55.11.76.32.21.21.32.47.32.76v25.99c0,.3-.11.55-.32.76-.22.22-.47.32-.76.32h-6.36c-.46,0-.8-.09-1.05-.28-.24-.19-.44-.4-.6-.64l-6.8-10.26v10.1c0,.3-.11.55-.32.76-.22.22-.47.32-.76.32h-7.28c-.3,0-.55-.11-.76-.32Z"/>
  </g>
</svg>